<svg xmlns="http://www.w3.org/2000/svg" xmlns:se="http://svg-edit.googlecode.com" xmlns:xlink="http://www.w3.org/1999/xlink" xmlns:dc="http://purl.org/dc/elements/1.1/" xmlns:cc="http://creativecommons.org/ns#" xmlns:rdf="http://www.w3.org/1999/02/22-rdf-syntax-ns#" xmlns:inkscape="http://www.inkscape.org/namespaces/inkscape" width="184.90606689453125" height="33.4033088684082" style="">                                    <title>my vector image</title>                                    <!-- Created with Vector Paint - http://www.vectorpaint.yaks.com/ https://chrome.google.com/webstore/detail/hnbpdiengicdefcjecjbnjnoifekhgdo -->                                    <rect id="backgroundrect" width="100%" height="100%" x="0" y="0" fill="#FFFFFF" stroke="none"/>                                <g class="currentLayer" style=""><title>Layer 1</title><polyline fill="none" stroke="#eb1a1a" stroke-width="6" stroke-linejoin="round" stroke-dashoffset="" fill-rule="nonzero" marker-start="" marker-mid="" marker-end="" id="svg_1" points="9.1625736778591,10.998530223987544 11.818823638277891,10.686030228644157 12.600073626636359,10.686030228644157 14.475073598696682,10.686030228644157 17.443823554458866,10.686030228644157 20.72507350556443,10.686030228644157 23.69382346132661,10.529780230972463 27.131323410103867,10.529780230972463 30.881323354224513,10.529780230972463 34.16257330533008,10.529780230972463 36.81882326574887,10.529780230972463 39.94382321918274,10.529780230972463 43.53757316563169,10.529780230972463 48.537573091125886,10.061030237957382 53.22507302127669,9.592280244942302 59.475072928144435,9.436030247270608 65.72507283501218,9.123530251927221 71.03757275584977,8.967280254255527 78.22507264874767,8.498530261240447 88.38132249740775,7.561030275210285 99.78757232744138,6.311030293836737 111.19382215747501,5.061030312463188 120.10007202476154,4.436030321776414 126.50632192930098,3.9672803287613334 132.75632183616872,3.811030331089633 139.94382172906663,3.186030340402859 143.69382167318727,2.4047803520443907 146.50632163127776,2.0922803567010035 148.0688216079947,1.7797803613576164 148.53757160100977,1.6235303636859229 148.53757160100977,1.4672803660142293 147.44382161730792,1.4672803660142293 145.5688216452476,1.4672803660142293 141.19382171044018,1.93603035902931 131.81882185013856,3.498530335746246 118.06882205502953,6.311030293836737 101.50632230183001,9.904780240285689 75.41257269065719,14.436030172764802 58.06882294909919,16.9360301355119 44.162573156318466,18.34228011455714 33.5375733146433,18.967280105243916 24.475073449685077,19.436030098258996 15.568823582398545,19.748530093602383 9.631323670874181,19.904780091274077 3.225073766334745,20.52978008196085 -1.3061761661443683,20.84228007730424 -5.5249261032800945,21.467280067991013 -9.118676049729046,22.404780054021174 -12.399926000834611,23.18603004237964 -12.556175998506305,23.18603004237964 -12.399926000834611,23.18603004237964 -10.681176026445982,22.873530047036255 -7.556176073012111,22.24853005634948 -1.6186761614877554,21.467280067991013 8.537573687172326,20.84228007730424 19.006323531175802,20.52978008196085 30.881323354224513,20.52978008196085 43.53757316563169,20.217280086617464 60.412572914174596,20.217280086617464 74.00632271161194,20.217280086617464 85.88132253466065,20.217280086617464 95.72507238797735,20.217280086617464 102.91257228087525,20.217280086617464 108.53757219705622,20.217280086617464 114.94382210159566,20.217280086617464 122.28757199216525,19.904780091274077 130.25632187342163,19.436030098258996 138.225071754678,18.811030107572222 145.88132164059098,18.811030107572222 152.4438215428021,18.65478010990053 158.69382144966985,18.34228011455714 165.41257134955268,18.186030116885448 174.3188212168392,17.717280123870367 179.00632114699002,17.40478012852698 183.38132108179744,16.9360301355119 186.8188210305747,16.779780137840206 187.91257101427655,16.779780137840206 188.8500710003067,16.623530140168512 190.10007098168026,16.623530140168512 191.19382096538212,16.46728014249682 191.5063209607255,16.311030144825125 191.3500709630538,16.311030144825125 190.10007098168026,16.15478014715343 188.8500710003067,16.15478014715343 185.56882104920115,16.311030144825125 181.50632110973712,16.9360301355119 177.75632116561647,17.40478012852698 172.4438212447789,17.87353012154206 167.1313213239413,17.87353012154206 161.81882140310373,17.87353012154206 156.81882147760953,17.87353012154206 151.35007155910026,17.87353012154206 146.19382163593437,17.87353012154206 141.66257170345526,18.029780119213754 136.66257177796106,18.498530112228835 133.0688218315121,18.65478010990053 129.00632189204808,19.12353010291561 125.10007195025574,19.59228009593069 120.25632202243324,19.904780091274077 110.10007217377316,20.52978008196085 104.63132225526388,20.84228007730424 96.50632237633582,21.467280067991013 87.91257250439267,22.24853005634948 75.41257269065719,23.029780044707948 66.50632282337065,23.654780035394722 55.25632299100871,24.279780026081497 46.350073123722176,24.592280021424884 36.35007327273379,25.061030014439964 31.350073347239594,25.37353000978335 26.037573426402012,25.68603000512674 19.78757351953427,26.311029995813513 16.193823573085318,26.779779988828594 14.631323596368375,26.936029986500287 13.06882361965144,27.248529981843674 12.287573631292972,27.404779979515368 11.506323642934504,27.717279974858755 11.35007364526281,27.87352997253045 11.037573649919423,28.029779970202142 11.818823638277891,28.029779970202142 12.287573631292972,28.029779970202142 14.162573603353295,27.56102997718706 16.193823573085318,27.56102997718706 24.006323456669996,26.936029986500287 33.06882332162822,26.6235299911569 42.91257317494492,26.6235299911569 51.66257304455976,26.6235299911569 58.85007293745766,26.6235299911569 69.47507277913283,26.6235299911569 81.50632259985323,26.6235299911569 88.22507249973606,26.6235299911569 96.35007237866412,26.6235299911569 101.03757230881493,26.779779988828594 109.0063221900713,26.779779988828594 119.31882203640308,26.779779988828594 125.41257194559913,26.779779988828594 133.5375718245272,26.779779988828594 140.5688217197534,26.936029986500287 144.31882166387405,27.404779979515368 149.16257159169655,28.029779970202142 152.7563215381455,28.654779960888916 158.85007144734155,29.27977995157569 165.88132134256776,29.904779942262465 170.10007127970349,30.06102993993416 176.03757119122784,30.06102993993416 181.03757111672203,30.06102993993416 184.4750710654993,30.06102993993416 189.3188209933218,30.373529935277546 192.28757094908397,30.373529935277546 193.38132093278583,30.373529935277546 193.6938209281292,30.373529935277546 " style="color: rgb(0, 0, 0);"/></g></svg>